<svg width="40" height="29" viewBox="0 0 40 29" fill="none" xmlns="http://www.w3.org/2000/svg">
<g clip-path="url(#clip0_1_201)">
<g clip-path="url(#clip1_1_201)">
<mask id="mask0_1_201" style="mask-type:luminance" maskUnits="userSpaceOnUse" x="1" y="1" width="252" height="27">
<path d="M252.841 1.13538H1.14021V27.9839H252.841V1.13538Z" fill="white"/>
</mask>
<g mask="url(#mask0_1_201)">
<path d="M33.7185 13.0221C33.7808 10.8753 33.2514 8.75272 32.1882 6.88659C31.1777 5.13643 29.724 3.68338 27.9734 2.67374C26.2227 1.66409 24.237 1.1335 22.2162 1.13538C20.2017 1.16627 18.2261 1.6944 16.4649 2.67284C14.1113 4.04178 12.3393 6.22391 11.4824 8.8084C8.94338 8.61208 6.43034 9.43242 4.49614 11.089C2.56194 12.7455 1.36502 15.1026 1.16869 17.6417C0.972363 20.1807 1.79271 22.6937 3.44926 24.628C5.10582 26.5621 7.46288 27.7591 10.0019 27.9554C10.2368 27.9554 10.4788 27.9554 10.7137 27.9554H31.8039C33.8316 27.948 35.7747 27.1411 37.2112 25.7099C38.6478 24.2786 39.4619 22.3386 39.4769 20.3109C39.459 18.63 38.884 17.0025 37.842 15.6835C36.7998 14.3645 35.3496 13.4285 33.7185 13.0221ZM31.8039 24.1473H10.7066C9.96532 24.1615 9.22852 24.0295 8.53827 23.7588C7.84804 23.4881 7.21788 23.0841 6.6838 22.57C6.14972 22.0557 5.72219 21.4412 5.42563 20.7617C5.12906 20.0822 4.96927 19.351 4.95538 18.6097V18.3961C4.94786 17.6483 5.08772 16.9064 5.36697 16.2127C5.6462 15.5189 6.05936 14.8869 6.58284 14.3529C7.10633 13.8188 7.72988 13.3931 8.41789 13.1001C9.10591 12.807 9.84491 12.6524 10.5927 12.645H10.7066C11.9671 12.5747 13.224 12.8374 14.3509 13.4065C14.3509 13.4065 14.1944 8.01833 18.3796 5.93281C19.5673 5.32118 20.8804 4.99232 22.2162 4.9719C23.5634 4.99561 24.8827 5.35983 26.0513 6.03062C27.22 6.70143 28.1998 7.657 28.8998 8.8084C30.665 11.7694 29.2842 16.4743 29.2842 16.4743H31.5833C32.6197 16.4713 33.6174 16.8687 34.3679 17.5835C35.1186 18.2984 35.5642 19.2755 35.6119 20.3109C35.6082 21.3223 35.2067 22.2916 34.4942 23.0095C33.7817 23.7274 32.8153 24.1361 31.8039 24.1473Z" fill="url(#paint0_linear_1_201)"/>
</g>
</g>
</g>
<defs>
<linearGradient id="paint0_linear_1_201" x1="20.3228" y1="36.1053" x2="20.2943" y2="-0.90744" gradientUnits="userSpaceOnUse">
<stop stop-color="#FCED1C"/>
<stop offset="0.95" stop-color="#F05A29"/>
</linearGradient>
<clipPath id="clip0_1_201">
<rect width="40" height="28.5645" fill="white"/>
</clipPath>
<clipPath id="clip1_1_201">
<rect width="39.9902" height="28.5645" fill="white" transform="translate(0.00488281)"/>
</clipPath>
</defs>
</svg>
