<svg width="40" height="42" viewBox="0 0 40 42" fill="none" xmlns="http://www.w3.org/2000/svg">
<g clip-path="url(#clip0_1_223)">
<g clip-path="url(#clip1_1_223)">
<path d="M25.6132 30.5238V34.4197C27.7453 33.6626 29.7142 32.5074 31.4154 31.0157C31.515 30.9285 31.5948 30.8209 31.6494 30.7002C31.704 30.5796 31.7322 30.4486 31.7319 30.3162V26.6858C29.9522 28.339 27.8762 29.6411 25.6132 30.5238Z" fill="#F1592B"/>
<path d="M14.0396 30.4899C11.7845 29.6062 9.71235 28.313 7.92764 26.6757V30.3146C7.92776 30.4482 7.95654 30.5802 8.01203 30.7018C8.06752 30.8233 8.14844 30.9316 8.24932 31.0192C9.9526 32.4929 11.9148 33.6373 14.0362 34.3943L14.0396 30.4899Z" fill="#F1592B"/>
<path d="M19.8672 31.6574C18.1749 31.6181 16.4977 31.3278 14.8906 30.7961V34.6784C16.4972 35.1679 18.1641 35.4314 19.8434 35.4613H19.8723C21.5296 35.4372 23.1753 35.1822 24.7622 34.704V30.8251C23.1811 31.3447 21.5312 31.6252 19.8672 31.6574Z" fill="#F1592B"/>
<path d="M25.6132 25.3464V29.6014C27.9072 28.6543 29.99 27.2606 31.7405 25.5013V22.2334L25.6132 25.3464Z" fill="#F1592B"/>
<path d="M7.92764 22.2367V25.5063C9.6819 27.2457 11.7578 28.6273 14.0396 29.5741V25.3463L7.92764 22.2367Z" fill="#F1592B"/>
<path d="M20.2893 28.0526C20.146 28.126 19.9874 28.1645 19.8264 28.1649C19.6653 28.1651 19.5065 28.1266 19.3634 28.0526L14.8906 25.7787V29.8958C16.4929 30.4575 18.1733 30.7647 19.8706 30.8064C21.5369 30.7736 23.1875 30.4789 24.7622 29.9333V25.7787L20.2893 28.0526Z" fill="#F1592B"/>
<path d="M39.9101 23.3175C39.7521 23.3175 39.6006 23.2548 39.4889 23.143C39.3772 23.0313 39.3144 22.8798 39.3144 22.7218V18.4668C39.3144 18.3088 39.3772 18.1573 39.4889 18.0456C39.6006 17.9339 39.7521 17.8711 39.9101 17.8711C40.0681 17.8711 40.2196 17.9339 40.3313 18.0456C40.443 18.1573 40.5058 18.3088 40.5058 18.4668V22.7218C40.5058 22.8798 40.443 23.0313 40.3313 23.143C40.2196 23.2548 40.0681 23.3175 39.9101 23.3175Z" fill="#F1592B"/>
<path d="M39.9986 15.25L20.2553 5.20646C20.1235 5.13935 19.9777 5.10437 19.8298 5.10437C19.6819 5.10437 19.5361 5.13935 19.4043 5.20646L-0.339009 15.25C-0.492032 15.3282 -0.620484 15.4471 -0.710189 15.5937C-0.799895 15.7403 -0.847366 15.9088 -0.847366 16.0806C-0.847366 16.2524 -0.799895 16.4209 -0.710189 16.5675C-0.620484 16.7141 -0.492032 16.833 -0.339009 16.9112L19.4043 26.953C19.4635 26.9827 19.5257 27.0061 19.5898 27.0228L19.8281 27.1436L20.0647 27.0228C20.1288 27.0061 20.191 26.9827 20.2502 26.953L39.9935 16.9112C40.147 16.8334 40.276 16.7146 40.3661 16.568C40.4562 16.4214 40.5039 16.2527 40.5039 16.0806C40.5039 15.9085 40.4562 15.7398 40.3661 15.5932C40.276 15.4465 40.147 15.3278 39.9935 15.25H39.9986Z" fill="#F1592B"/>
<path d="M28.3858 19.1936C28.6329 18.9923 28.8639 18.7721 29.0768 18.5349C29.3219 18.2626 29.5229 17.9536 29.6725 17.6192C29.8486 17.2586 29.9499 16.866 29.9704 16.4652C29.9789 16.2977 29.9738 16.1298 29.955 15.9631C31.0256 15.5445 31.2298 14.799 31.2298 14.799C30.6062 14.437 29.907 14.2249 29.1874 14.1794C29.1721 14.1539 29.1415 14.1233 29.1262 14.0977C29.0274 13.9803 28.9236 13.868 28.8164 13.7573C28.7092 13.6467 28.573 13.5344 28.4505 13.4169C28.3279 13.2995 28.1798 13.1957 28.0437 13.0919C28.0147 13.0765 27.9994 13.0527 27.9688 13.0374C28.177 12.7966 28.301 12.4945 28.3219 12.1769C28.3428 11.8592 28.2595 11.5435 28.0845 11.2775C26.1442 11.0818 24.9018 11.5737 24.9018 11.5737C24.8804 11.5854 24.8575 11.594 24.8337 11.5992C24.7452 11.5686 24.6635 11.5532 24.5716 11.5226C24.4575 11.4937 24.3248 11.4562 24.1971 11.4341C24.0695 11.412 23.9367 11.3745 23.8074 11.3507C23.547 11.2911 23.2968 11.2469 23.0159 11.2111C22.7351 11.1754 22.4849 11.1448 22.199 11.1124C22.1904 11.0996 22.1794 11.0886 22.1666 11.0801C21.0723 9.8257 18.8222 9.44275 18.8222 9.44275C16.9942 10.3448 16.7509 11.3984 16.7219 11.5992C16.567 11.6383 16.4411 11.6792 16.2862 11.7183C15.7851 11.8638 15.2944 12.043 14.8174 12.2545C14.7476 12.2766 14.6914 12.3089 14.608 12.3396C13.1973 12.0727 11.7455 12.1157 10.353 12.4655C10.2781 14.0126 11.7452 14.9522 11.7452 14.9522C11.6196 15.2481 11.5431 15.5626 11.5189 15.8832C11.5044 16.0155 11.5044 16.1491 11.5189 16.2814C9.76751 16.7563 9.27393 17.7009 9.27393 17.7009C10.3247 18.3193 11.4983 18.6999 12.712 18.8157L13.0422 19.1561C13.4207 19.5008 13.8291 19.8113 14.2625 20.0837L14.6029 20.2811L14.6642 20.3169L14.7101 20.3424L14.785 20.3867L14.8616 20.4292C14.6676 21.413 15.7943 22.2112 15.7943 22.2112C17.5116 22.1857 18.3916 21.7006 18.5669 21.5798H18.5805L18.606 21.5628L18.6469 21.5355C18.9498 21.5628 19.2528 21.5883 19.5524 21.5968C20.178 21.6122 20.804 21.5792 21.4246 21.4981C21.4807 21.4981 21.5369 21.4794 21.5948 21.4794C22.5377 22.0802 23.8482 22.0819 23.8482 22.0819C24.6039 21.3755 24.4575 20.7543 24.432 20.6249V20.5943C24.432 20.5773 24.3707 20.562 24.3707 20.562V20.5433C24.4252 20.5075 24.4933 20.482 24.5409 20.4445C24.6346 20.3833 24.7554 20.322 24.849 20.259L24.9324 20.208L24.9733 20.1807H24.9852L25.0124 20.162L25.0788 20.1177L25.1622 20.065L25.2439 20.0122C25.2712 19.9988 25.2937 19.9775 25.3086 19.951L25.3749 19.8897L25.4107 19.8284C25.5043 19.7501 25.5673 19.6718 25.6592 19.5935C25.9311 19.3043 26.1367 18.9593 26.2617 18.5825C26.3744 18.2464 26.3961 17.8864 26.3247 17.5392C26.2494 17.1871 26.0997 16.8551 25.8855 16.5657C25.6431 16.2506 25.3511 15.9769 25.0209 15.7555C24.8437 15.6339 24.6589 15.5236 24.4678 15.4253L24.3929 15.3862H24.3776L24.3486 15.3691L24.318 15.3538L24.2448 15.313L24.1699 15.2721L23.8295 15.1377C22.892 14.7948 21.8927 14.6538 20.8969 14.7241C20.4412 14.7556 19.9886 14.8239 19.5438 14.9283C19.1685 15.0237 18.8057 15.1631 18.4631 15.3436L18.2452 15.4764L18.2129 15.4883L18.1584 15.5206C18.1225 15.539 18.0906 15.5645 18.0648 15.5955C17.9431 15.6844 17.8323 15.7872 17.7346 15.9019C17.5698 16.0885 17.4565 16.315 17.4061 16.5588C17.3717 16.7768 17.3958 17 17.4759 17.2056C17.5626 17.4179 17.6965 17.6076 17.8674 17.7605C18.0428 17.9336 18.2437 18.0788 18.4631 18.1911L18.5397 18.2336L18.5839 18.2592L18.6282 18.2847L18.7048 18.3272H18.7184H18.7337L18.7796 18.3528C18.8103 18.3698 18.8375 18.3698 18.8682 18.3868C18.8988 18.4038 18.926 18.4038 18.9567 18.4208C19.0162 18.4379 19.0741 18.4549 19.149 18.4804C19.2647 18.5128 19.3958 18.5383 19.5132 18.5723C19.6307 18.6064 19.76 18.6132 19.8536 18.6217C19.8825 18.6217 19.9268 18.6217 19.9557 18.6217C20.0834 18.6302 20.1923 18.5774 20.2025 18.5025C20.2127 18.4277 20.1191 18.3749 20.0323 18.3579C20.0028 18.3555 19.9737 18.3498 19.9455 18.3409C19.8557 18.327 19.7674 18.3048 19.6817 18.2745C19.5932 18.2404 19.5115 18.2251 19.4179 18.1911C19.3719 18.1655 19.3294 18.157 19.2834 18.1315L19.2239 18.0992L19.1643 18.0651L19.103 18.0311L19.0281 17.9885H19.0128L18.9839 17.9715L18.9226 17.9375C18.7848 17.8355 18.6631 17.7133 18.5618 17.5749C18.4708 17.4454 18.405 17.2999 18.3678 17.146C18.3407 16.9942 18.3572 16.8378 18.4154 16.695C18.4859 16.5293 18.5957 16.3832 18.7354 16.2695C18.8165 16.1953 18.9076 16.1329 19.006 16.084L19.0894 16.0346H19.1013H19.1166L19.1558 16.0091C19.2133 15.9782 19.2737 15.9531 19.3362 15.9342C19.8858 15.7147 20.4738 15.6076 21.0654 15.6193C21.222 15.6193 21.3939 15.6193 21.5369 15.6398C21.6969 15.6548 21.8559 15.6781 22.0135 15.7095C22.1581 15.7419 22.3181 15.7827 22.4645 15.8304C22.6109 15.878 22.7436 15.9342 22.8764 16.0006L23.0551 16.0993L23.101 16.1231L23.1453 16.147L23.1742 16.164L23.2202 16.1895C23.3341 16.2652 23.4437 16.347 23.5487 16.4346C23.7439 16.5955 23.9097 16.789 24.0389 17.0065C24.1572 17.1955 24.2255 17.4115 24.2374 17.6342C24.2493 17.8569 24.2044 18.079 24.1069 18.2796C23.9988 18.5031 23.8486 18.7036 23.6644 18.8702C23.6117 18.9212 23.5572 18.9553 23.5061 19.008L23.4653 19.0336L23.4244 19.0591L23.3853 19.0863L23.3444 19.1119L23.3036 19.1374L23.2627 19.1646L23.1572 19.2327C23.0891 19.277 23.0057 19.3127 22.9394 19.3552C22.873 19.3978 22.7896 19.4335 22.7079 19.4693L22.4747 19.568C22.3094 19.6385 22.1386 19.6954 21.9641 19.7382C21.5927 19.8437 21.2119 19.9127 20.8272 19.9441C20.0253 20.0203 19.2166 19.9732 18.429 19.8046C18.0539 19.7171 17.6853 19.6033 17.3261 19.4642C17.1566 19.3994 16.9922 19.322 16.8342 19.2327L16.8053 19.2174L16.7747 19.1987L16.6998 19.1561L16.6232 19.1136L16.5789 19.088H16.5636C16.484 19.0451 16.4078 18.9961 16.3356 18.9417C16.0488 18.7558 15.7799 18.5439 15.5322 18.3085C15.3151 18.0987 15.1258 17.8619 14.9688 17.6039C14.6842 17.1575 14.5533 16.6304 14.5961 16.1027C14.622 15.8484 14.6941 15.601 14.8089 15.3725C14.9268 15.1233 15.0824 14.8937 15.2701 14.6917C15.4804 14.4693 15.7151 14.2712 15.9696 14.1011L16.0241 14.0688L16.0377 14.0586H16.0513L16.0786 14.0433L16.1211 14.0177H16.1347L16.2028 13.9752H16.2164L16.2437 13.9582L16.3526 13.8935C16.503 13.8058 16.66 13.7301 16.8223 13.6671C16.9925 13.5854 17.1525 13.5208 17.3329 13.4476C17.5134 13.3744 17.6938 13.3165 17.8759 13.2604C18.249 13.1409 18.6279 13.0403 19.0111 12.9591C19.7725 12.788 20.5506 12.7018 21.331 12.7021C21.5301 12.7021 21.7156 12.7021 21.9011 12.7123C22.0866 12.7225 22.2739 12.7412 22.4611 12.7651C22.6483 12.7889 22.8338 12.8093 23.0057 12.8383C23.0891 12.8536 23.1759 12.8689 23.2815 12.8927L23.4108 12.9148L23.5402 12.937C23.7274 12.9744 23.9027 13.0204 24.0763 13.068C24.1188 13.068 24.1631 13.0987 24.2074 13.1055C24.2516 13.1123 24.2942 13.1378 24.3367 13.1446L24.5835 13.2297C24.6277 13.2382 24.672 13.2604 24.7146 13.2689C24.7571 13.2774 24.8031 13.2995 24.832 13.3148C24.8609 13.3301 24.9188 13.3472 24.9494 13.3625L25.0073 13.3778L25.0515 13.4016C25.0805 13.4169 25.1384 13.4323 25.1673 13.4476C25.1962 13.4629 25.2558 13.4782 25.3 13.502C25.3443 13.5259 25.4022 13.5412 25.4328 13.5565L25.506 13.5974L25.5502 13.6195L25.5809 13.6365L25.6098 13.6518L25.7272 13.7148L25.7868 13.7454L25.8021 13.7539L25.8311 13.771L25.9349 13.8254L26.3349 14.0382C26.5702 14.1791 26.7975 14.3331 27.0157 14.4994C27.399 14.7795 27.7297 15.1253 27.9926 15.5206C28.2098 15.8397 28.3689 16.1946 28.4624 16.5691C28.4624 16.5861 28.4794 16.6099 28.4624 16.6354C28.4454 16.661 28.4811 16.678 28.4624 16.7035C28.4794 16.7444 28.4624 16.7869 28.4862 16.8278C28.51 16.8686 28.4862 16.9112 28.5117 16.9537C28.5185 16.9954 28.5185 17.038 28.5117 17.0797C28.5234 17.2408 28.5137 17.4028 28.4828 17.5613C28.4463 17.8551 28.3666 18.1419 28.2462 18.4123C28.2462 18.4311 28.236 18.4396 28.2224 18.4651C28.2088 18.4906 28.2122 18.4906 28.2003 18.5162C28.1884 18.5417 28.1628 18.5774 28.1509 18.603C28.139 18.6285 28.1135 18.6642 28.1016 18.6898C28.0896 18.7153 28.0658 18.7493 28.0539 18.7749C27.9926 18.8872 27.916 18.9927 27.8548 19.088C27.7588 19.2313 27.653 19.3678 27.5382 19.4965C27.5007 19.5408 27.5195 19.5952 27.579 19.6344C27.6145 19.6507 27.6531 19.6592 27.6922 19.6592C27.7313 19.6592 27.7699 19.6507 27.8054 19.6344C28.042 19.4625 28.2156 19.3467 28.3858 19.1936Z" fill="white"/>
</g>
</g>
<defs>
<clipPath id="clip0_1_223">
<rect width="40" height="41.6992" fill="white"/>
</clipPath>
<clipPath id="clip1_1_223">
<rect width="39.9972" height="41.6992" fill="white" transform="translate(0.00138855)"/>
</clipPath>
</defs>
</svg>
