<svg width="16" height="16" viewBox="0 0 16 16" fill="none" xmlns="http://www.w3.org/2000/svg">
<g clip-path="url(#clip0_1_160)">
<path d="M14.6667 6.44667C14.6246 6.32473 14.548 6.21762 14.4462 6.13834C14.3445 6.05906 14.2219 6.011 14.0933 6.00001L10.3 5.44667L8.6 2.00001C8.54541 1.88729 8.46018 1.79223 8.35406 1.72572C8.24795 1.65921 8.12524 1.62393 8 1.62393C7.87476 1.62393 7.75206 1.65921 7.64594 1.72572C7.53983 1.79223 7.45459 1.88729 7.4 2.00001L5.7 5.44001L1.90667 6.00001C1.78328 6.01754 1.66728 6.06932 1.57183 6.14945C1.47638 6.22958 1.40531 6.33486 1.36667 6.45334C1.3313 6.56912 1.32812 6.69235 1.35749 6.8098C1.38685 6.92725 1.44764 7.03449 1.53333 7.12001L4.28667 9.78667L3.62 13.5733C3.5962 13.6983 3.60866 13.8275 3.65592 13.9456C3.70317 14.0638 3.78324 14.1659 3.88667 14.24C3.98748 14.3121 4.10638 14.3546 4.23003 14.3629C4.35368 14.3711 4.47718 14.3447 4.58667 14.2867L8 12.5067L11.4 14.2933C11.4936 14.3461 11.5992 14.3737 11.7067 14.3733C11.8479 14.3738 11.9856 14.3295 12.1 14.2467C12.2034 14.1726 12.2835 14.0704 12.3308 13.9523C12.378 13.8342 12.3905 13.705 12.3667 13.58L11.7 9.79334L14.4533 7.12667C14.5496 7.04513 14.6207 6.93794 14.6585 6.81757C14.6963 6.6972 14.6991 6.56859 14.6667 6.44667ZM10.5667 9.11334C10.4885 9.18896 10.43 9.28257 10.3963 9.38599C10.3626 9.48941 10.3547 9.59951 10.3733 9.70667L10.8533 12.5L8.34667 11.1667C8.25021 11.1153 8.14261 11.0885 8.03334 11.0885C7.92406 11.0885 7.81646 11.1153 7.72 11.1667L5.21333 12.5L5.69334 9.70667C5.71196 9.59951 5.70408 9.48941 5.67038 9.38599C5.63668 9.28257 5.57819 9.18896 5.5 9.11334L3.5 7.11334L6.30667 6.70667C6.41467 6.69165 6.51733 6.65037 6.60567 6.58644C6.694 6.52252 6.76531 6.4379 6.81334 6.34001L8 3.80001L9.25334 6.34667C9.30136 6.44457 9.37267 6.52918 9.461 6.59311C9.54934 6.65703 9.652 6.69832 9.76 6.71334L12.5667 7.12001L10.5667 9.11334Z" fill="#CCCCDC"/>
</g>
<defs>
<clipPath id="clip0_1_160">
<rect width="15.9961" height="15.9961" fill="white" transform="scale(1.00024)"/>
</clipPath>
</defs>
</svg>
