<svg width="16" height="16" viewBox="0 0 16 16" fill="none" xmlns="http://www.w3.org/2000/svg">
<g clip-path="url(#clip0_1_195)">
<path d="M8.19985 8.14673C8.55557 7.83882 8.84088 7.45798 9.03643 7.03008C9.23198 6.60217 9.33319 6.1372 9.33318 5.66673C9.33318 4.78267 8.98199 3.93483 8.35687 3.3097C7.73175 2.68458 6.8839 2.33339 5.99985 2.33339C5.11579 2.33339 4.26795 2.68458 3.64282 3.3097C3.0177 3.93483 2.66651 4.78267 2.66651 5.66673C2.66651 6.1372 2.76772 6.60217 2.96326 7.03008C3.15881 7.45798 3.44413 7.83882 3.79985 8.14673C2.86661 8.56932 2.07482 9.25175 1.51917 10.1124C0.963511 10.9731 0.667495 11.9756 0.666514 13C0.666514 13.1769 0.736752 13.3464 0.861776 13.4714C0.9868 13.5965 1.15637 13.6667 1.33318 13.6667C1.50999 13.6667 1.67956 13.5965 1.80459 13.4714C1.92961 13.3464 1.99985 13.1769 1.99985 13C1.99985 11.9392 2.42127 10.9218 3.17142 10.1716C3.92157 9.42149 4.93898 9.00006 5.99985 9.00006C7.06071 9.00006 8.07813 9.42149 8.82827 10.1716C9.57842 10.9218 9.99985 11.9392 9.99985 13C9.99985 13.1769 10.0701 13.3464 10.1951 13.4714C10.3201 13.5965 10.4897 13.6667 10.6665 13.6667C10.8433 13.6667 11.0129 13.5965 11.1379 13.4714C11.2629 13.3464 11.3332 13.1769 11.3332 13C11.3322 11.9756 11.0362 10.9731 10.4805 10.1124C9.92487 9.25175 9.13309 8.56932 8.19985 8.14673ZM5.99985 7.66673C5.60428 7.66673 5.21761 7.54943 4.88871 7.32967C4.55981 7.1099 4.30346 6.79755 4.15209 6.43209C4.00071 6.06664 3.96111 5.66451 4.03828 5.27655C4.11545 4.88858 4.30593 4.53222 4.58563 4.25251C4.86534 3.97281 5.2217 3.78233 5.60967 3.70516C5.99763 3.62799 6.39976 3.66759 6.76521 3.81897C7.13067 3.97034 7.44302 4.22669 7.66279 4.55559C7.88255 4.88449 7.99985 5.27116 7.99985 5.66673C7.99985 6.19716 7.78913 6.70587 7.41406 7.08094C7.03899 7.45601 6.53028 7.66673 5.99985 7.66673ZM12.4932 7.88006C12.9198 7.39961 13.1985 6.8061 13.2957 6.17095C13.3929 5.53581 13.3045 4.88611 13.041 4.30006C12.7776 3.71401 12.3504 3.21659 11.8108 2.86768C11.2713 2.51876 10.6424 2.33322 9.99985 2.33339C9.82304 2.33339 9.65347 2.40363 9.52844 2.52866C9.40342 2.65368 9.33318 2.82325 9.33318 3.00006C9.33318 3.17687 9.40342 3.34644 9.52844 3.47147C9.65347 3.59649 9.82304 3.66673 9.99985 3.66673C10.5303 3.66673 11.039 3.87744 11.4141 4.25251C11.7891 4.62759 11.9998 5.13629 11.9998 5.66673C11.9989 6.01689 11.906 6.36066 11.7305 6.66368C11.5551 6.96669 11.3031 7.21832 10.9998 7.39339C10.901 7.45041 10.8184 7.53184 10.7601 7.62989C10.7017 7.72794 10.6695 7.83933 10.6665 7.95339C10.6637 8.06657 10.6898 8.17859 10.7423 8.2789C10.7948 8.37921 10.8719 8.4645 10.9665 8.52673L11.2265 8.70006L11.3132 8.74673C12.1168 9.12787 12.7947 9.73072 13.2672 10.4843C13.7396 11.2378 13.9869 12.1107 13.9798 13C13.9798 13.1769 14.0501 13.3464 14.1751 13.4714C14.3001 13.5965 14.4697 13.6667 14.6465 13.6667C14.8233 13.6667 14.9929 13.5965 15.1179 13.4714C15.2429 13.3464 15.3132 13.1769 15.3132 13C15.3186 11.977 15.0624 10.9696 14.5688 10.0734C14.0752 9.17731 13.3607 8.42227 12.4932 7.88006Z" fill="#6E9FFF"/>
</g>
<defs>
<clipPath id="clip0_1_195">
<rect width="15.9961" height="15.9961" fill="white" transform="scale(1.00024)"/>
</clipPath>
</defs>
</svg>
