<svg width="14" height="12" viewBox="0 0 14 12" fill="none" xmlns="http://www.w3.org/2000/svg">
<g clip-path="url(#clip0_1_91)">
<path d="M11.6606 2H9.66198V1.33333C9.66198 0.979711 9.52159 0.640573 9.27173 0.390524C9.02185 0.140476 8.68295 0 8.32957 0H5.66475C5.31138 0 4.97247 0.140476 4.7226 0.390524C4.47272 0.640573 4.33235 0.979711 4.33235 1.33333V2H2.33373C1.80366 2 1.29532 2.21071 0.920499 2.58579C0.545686 2.96086 0.335118 3.46957 0.335118 4V10C0.335118 10.5304 0.545686 11.0391 0.920499 11.4142C1.29532 11.7893 1.80366 12 2.33373 12H11.6606C12.1907 12 12.699 11.7893 13.0738 11.4142C13.4486 11.0391 13.6592 10.5304 13.6592 10V4C13.6592 3.46957 13.4486 2.96086 13.0738 2.58579C12.699 2.21071 12.1907 2 11.6606 2ZM5.66475 1.33333H8.32957V2H5.66475V1.33333ZM12.3268 10C12.3268 10.1768 12.2566 10.3464 12.1316 10.4714C12.0067 10.5964 11.8372 10.6667 11.6606 10.6667H2.33373C2.15705 10.6667 1.98759 10.5964 1.86265 10.4714C1.73772 10.3464 1.66753 10.1768 1.66753 10V6.26L4.78536 7.33333C4.8561 7.34294 4.92781 7.34294 4.99854 7.33333H8.99577C9.06802 7.332 9.13975 7.32078 9.20896 7.3L12.3268 6.26V10ZM12.3268 4.85333L8.88918 6H5.10514L1.66753 4.85333V4C1.66753 3.82319 1.73772 3.65362 1.86265 3.5286C1.98759 3.40357 2.15705 3.33333 2.33373 3.33333H11.6606C11.8372 3.33333 12.0067 3.40357 12.1316 3.5286C12.2566 3.65362 12.3268 3.82319 12.3268 4V4.85333Z" fill="white"/>
</g>
<defs>
<clipPath id="clip0_1_91">
<rect width="13.9844" height="11.9922" fill="white" transform="scale(1.00065)"/>
</clipPath>
</defs>
</svg>
