<svg width="16" height="16" viewBox="0 0 16 16" fill="none" xmlns="http://www.w3.org/2000/svg">
<g clip-path="url(#clip0_1_185)">
<path d="M11.9998 1.33339H5.33317C4.62593 1.33339 3.94765 1.61435 3.44755 2.11444C2.94746 2.61454 2.6665 3.29283 2.6665 4.00007V12C2.6665 12.7073 2.94746 13.3856 3.44755 13.8857C3.94765 14.3858 4.62593 14.6667 5.33317 14.6667H11.9998C12.3535 14.6667 12.6926 14.5262 12.9426 14.2762C13.1927 14.0261 13.3332 13.687 13.3332 13.3334V2.66673C13.3332 2.31311 13.1927 1.97397 12.9426 1.72392C12.6926 1.47387 12.3535 1.33339 11.9998 1.33339ZM3.99984 4.00007C3.99984 3.64645 4.14031 3.30731 4.39036 3.05726C4.64041 2.80721 4.97955 2.66673 5.33317 2.66673H11.9998V9.3334H5.33317C4.8632 9.33537 4.4025 9.46437 3.99984 9.70674V4.00007ZM5.33317 13.3334C4.97955 13.3334 4.64041 13.1929 4.39036 12.9429C4.14031 12.6928 3.99984 12.3537 3.99984 12C3.99984 11.6464 4.14031 11.3073 4.39036 11.0572C4.64041 10.8072 4.97955 10.6667 5.33317 10.6667H11.9998V13.3334H5.33317ZM6.6665 5.3334H9.33317C9.50998 5.3334 9.67955 5.26317 9.80457 5.13814C9.9296 5.01312 9.99984 4.84355 9.99984 4.66674C9.99984 4.48993 9.9296 4.32036 9.80457 4.19533C9.67955 4.07031 9.50998 4.00007 9.33317 4.00007H6.6665C6.48969 4.00007 6.32012 4.07031 6.1951 4.19533C6.07008 4.32036 5.99984 4.48993 5.99984 4.66674C5.99984 4.84355 6.07008 5.01312 6.1951 5.13814C6.32012 5.26317 6.48969 5.3334 6.6665 5.3334Z" fill="#6E9FFF"/>
</g>
<defs>
<clipPath id="clip0_1_185">
<rect width="15.9961" height="15.9961" fill="white" transform="scale(1.00024)"/>
</clipPath>
</defs>
</svg>
