<svg width="12" height="14" viewBox="0 0 12 14" fill="none" xmlns="http://www.w3.org/2000/svg">
<g clip-path="url(#clip0_1_101)">
<path d="M11.0865 1.43424C11.0091 1.37162 10.9186 1.32716 10.8216 1.3041C10.7247 1.28105 10.6239 1.27999 10.5265 1.30099C9.81414 1.45019 9.07875 1.45209 8.36561 1.30658C7.65247 1.16107 6.97668 0.871237 6.37985 0.454916C6.26825 0.377551 6.13567 0.336095 5.99985 0.336095C5.86403 0.336095 5.73145 0.377551 5.61985 0.454916C5.02302 0.871237 4.34723 1.16107 3.6341 1.30658C2.92096 1.45209 2.18556 1.45019 1.47318 1.30099C1.37581 1.27999 1.27496 1.28105 1.17805 1.3041C1.08114 1.32716 0.990631 1.37162 0.91318 1.43424C0.835833 1.49694 0.773528 1.57616 0.730842 1.66609C0.688156 1.75601 0.666175 1.85435 0.666514 1.95388V6.91709C0.665921 7.87227 0.893696 8.81376 1.33087 9.66317C1.76805 10.5126 2.40197 11.2453 3.17985 11.8004L5.61318 13.5325C5.72609 13.6128 5.86125 13.656 5.99985 13.656C6.13845 13.656 6.27361 13.6128 6.38652 13.5325L8.81985 11.8004C9.59773 11.2453 10.2316 10.5126 10.6688 9.66317C11.106 8.81376 11.3338 7.87227 11.3332 6.91709V1.95388C11.3335 1.85435 11.3115 1.75601 11.2688 1.66609C11.2262 1.57616 11.1639 1.49694 11.0865 1.43424ZM9.99985 6.91709C10.0004 7.65975 9.82338 8.39179 9.48362 9.05229C9.14386 9.71279 8.65116 10.2826 8.04652 10.7144L5.99985 12.1734L3.95318 10.7144C3.34854 10.2826 2.85584 9.71279 2.51608 9.05229C2.17633 8.39179 1.99934 7.65975 1.99985 6.91709V2.72001C3.39747 2.83954 4.79721 2.5155 5.99985 1.79399C7.20249 2.5155 8.60223 2.83954 9.99985 2.72001V6.91709Z" fill="white"/>
</g>
<defs>
<clipPath id="clip0_1_101">
<rect width="11.9922" height="13.9844" fill="white" transform="scale(1.00065)"/>
</clipPath>
</defs>
</svg>
