<svg width="16" height="16" viewBox="0 0 16 16" fill="none" xmlns="http://www.w3.org/2000/svg">
<g clip-path="url(#clip0_1_190)">
<path d="M7.11363 10.4565C7.08151 10.492 7.05159 10.5294 7.02403 10.5685C6.99578 10.6102 6.97317 10.6554 6.95683 10.7029C6.93531 10.7453 6.9202 10.7906 6.91203 10.8373C6.90836 10.887 6.90836 10.937 6.91203 10.9867C6.9095 11.0846 6.92996 11.1818 6.97176 11.2704C7.0053 11.3631 7.05879 11.4473 7.12848 11.5169C7.19815 11.5866 7.2823 11.6401 7.37496 11.6736C7.46434 11.7131 7.56098 11.7336 7.6587 11.7336C7.75642 11.7336 7.85306 11.7131 7.94243 11.6736C8.03508 11.6401 8.11923 11.5866 8.18892 11.5169C8.25859 11.4473 8.3121 11.3631 8.34563 11.2704C8.37878 11.1796 8.39401 11.0833 8.39043 10.9867C8.391 10.8884 8.37216 10.791 8.33501 10.7C8.29785 10.609 8.24309 10.5263 8.1739 10.4565C8.10448 10.3866 8.0219 10.331 7.93091 10.2931C7.83992 10.2552 7.74234 10.2357 7.64376 10.2357C7.54519 10.2357 7.4476 10.2552 7.35661 10.2931C7.26562 10.331 7.18304 10.3866 7.11363 10.4565ZM7.64376 0.533333C6.167 0.533333 4.72339 0.971246 3.49551 1.79169C2.26761 2.61214 1.3106 3.77827 0.74546 5.14264C0.180326 6.50699 0.0324611 8.00828 0.320564 9.45668C0.608667 10.9051 1.31979 12.2355 2.36403 13.2797C3.40826 14.324 4.7387 15.0351 6.18709 15.3232C7.63548 15.6113 9.13678 15.4635 10.5011 14.8984C11.8655 14.3331 13.0316 13.3761 13.8521 12.1483C14.6725 10.9204 15.1104 9.47677 15.1104 8C15.1104 7.01947 14.9173 6.04852 14.5421 5.14264C14.1668 4.23674 13.6169 3.41361 12.9235 2.72027C12.2302 2.02692 11.4071 1.47693 10.5011 1.1017C9.59523 0.726464 8.6243 0.533333 7.64376 0.533333ZM7.64376 13.9733C6.46235 13.9733 5.30747 13.623 4.32515 12.9666C3.34285 12.3103 2.57722 11.3774 2.12512 10.2859C1.67301 9.19441 1.55472 7.99338 1.7852 6.83466C2.01569 5.67595 2.58459 4.61161 3.41998 3.77621C4.25536 2.94083 5.31971 2.37193 6.47842 2.14144C7.63714 1.91097 8.83818 2.02925 9.92965 2.48136C11.0211 2.93347 11.954 3.69908 12.6104 4.6814C13.2668 5.6637 13.6171 6.81858 13.6171 8C13.6171 9.58423 12.9877 11.1036 11.8675 12.2238C10.7473 13.344 9.22799 13.9733 7.64376 13.9733ZM7.64376 4.26667C7.25031 4.26641 6.86374 4.36979 6.52294 4.56641C6.18215 4.76302 5.89916 5.04593 5.70243 5.38667C5.6484 5.47165 5.61213 5.56669 5.59579 5.66605C5.57944 5.76542 5.58337 5.86706 5.60733 5.96488C5.63128 6.06269 5.67478 6.15464 5.7352 6.2352C5.79561 6.31577 5.8717 6.38328 5.95889 6.43368C6.04607 6.48408 6.14255 6.51631 6.24252 6.52845C6.34248 6.5406 6.44387 6.5324 6.54059 6.50433C6.6373 6.47628 6.72735 6.42895 6.80529 6.36519C6.88324 6.30143 6.94749 6.22256 6.99416 6.13334C7.05995 6.01939 7.15468 5.92486 7.26875 5.85929C7.38282 5.79373 7.51219 5.75948 7.64376 5.76C7.84179 5.76 8.03171 5.83867 8.17173 5.97869C8.31177 6.11872 8.39043 6.30864 8.39043 6.50667C8.39043 6.7047 8.31177 6.89462 8.17173 7.03464C8.03171 7.17467 7.84179 7.25334 7.64376 7.25334C7.44574 7.25334 7.25582 7.332 7.11579 7.47202C6.97576 7.61206 6.8971 7.80198 6.8971 8V8.74667C6.8971 8.9447 6.97576 9.13462 7.11579 9.27464C7.25582 9.41467 7.44574 9.49334 7.64376 9.49334C7.84179 9.49334 8.03171 9.41467 8.17173 9.27464C8.31177 9.13462 8.39043 8.9447 8.39043 8.74667V8.61227C8.88426 8.43308 9.29939 8.08604 9.56327 7.6318C9.82716 7.17756 9.92299 6.64502 9.83404 6.12728C9.74508 5.60954 9.47698 5.13953 9.07661 4.79943C8.67624 4.45932 8.16908 4.27074 7.64376 4.26667Z" fill="#6E9FFF"/>
</g>
<defs>
<clipPath id="clip0_1_190">
<rect width="15.9961" height="15.9961" fill="white" transform="scale(1.00024)"/>
</clipPath>
</defs>
</svg>
