<svg width="14" height="14" viewBox="0 0 14 14" fill="none" xmlns="http://www.w3.org/2000/svg">
<g clip-path="url(#clip0_1_106)">
<path d="M5.66245 7.66183H0.996947C0.82018 7.66183 0.650653 7.73205 0.52566 7.85704C0.400667 7.98203 0.330447 8.15156 0.330447 8.32833V12.9939C0.330447 13.1706 0.400667 13.3402 0.52566 13.4651C0.650653 13.5901 0.82018 13.6604 0.996947 13.6604H5.66245C5.83921 13.6604 6.00874 13.5901 6.13373 13.4651C6.25873 13.3402 6.32895 13.1706 6.32895 12.9939V8.32833C6.32895 8.15156 6.25873 7.98203 6.13373 7.85704C6.00874 7.73205 5.83921 7.66183 5.66245 7.66183ZM4.99595 12.3274H1.66345V8.99483H4.99595V12.3274ZM12.994 0.330325H8.32845C8.15168 0.330325 7.98215 0.400545 7.85716 0.525538C7.73217 0.650531 7.66195 0.820058 7.66195 0.996825V5.66233C7.66195 5.83909 7.73217 6.00862 7.85716 6.13361C7.98215 6.25861 8.15168 6.32883 8.32845 6.32883H12.994C13.1707 6.32883 13.3403 6.25861 13.4653 6.13361C13.5903 6.00862 13.6605 5.83909 13.6605 5.66233V0.996825C13.6605 0.820058 13.5903 0.650531 13.4653 0.525538C13.3403 0.400545 13.1707 0.330325 12.994 0.330325ZM12.3275 4.99583H8.99495V1.66333H12.3275V4.99583ZM12.994 7.66183H8.32845C8.15168 7.66183 7.98215 7.73205 7.85716 7.85704C7.73217 7.98203 7.66195 8.15156 7.66195 8.32833V12.9939C7.66195 13.1706 7.73217 13.3402 7.85716 13.4651C7.98215 13.5901 8.15168 13.6604 8.32845 13.6604H12.994C13.1707 13.6604 13.3403 13.5901 13.4653 13.4651C13.5903 13.3402 13.6605 13.1706 13.6605 12.9939V8.32833C13.6605 8.15156 13.5903 7.98203 13.4653 7.85704C13.3403 7.73205 13.1707 7.66183 12.994 7.66183ZM12.3275 12.3274H8.99495V8.99483H12.3275V12.3274ZM5.66245 0.330325H0.996947C0.82018 0.330325 0.650653 0.400545 0.52566 0.525538C0.400667 0.650531 0.330447 0.820058 0.330447 0.996825V5.66233C0.330447 5.83909 0.400667 6.00862 0.52566 6.13361C0.650653 6.25861 0.82018 6.32883 0.996947 6.32883H5.66245C5.83921 6.32883 6.00874 6.25861 6.13373 6.13361C6.25873 6.00862 6.32895 5.83909 6.32895 5.66233V0.996825C6.32895 0.820058 6.25873 0.650531 6.13373 0.525538C6.00874 0.400545 5.83921 0.330325 5.66245 0.330325ZM4.99595 4.99583H1.66345V1.66333H4.99595V4.99583Z" fill="white"/>
</g>
<defs>
<clipPath id="clip0_1_106">
<rect width="13.9844" height="13.9844" fill="white" transform="scale(1.00112)"/>
</clipPath>
</defs>
</svg>
