<svg width="12" height="14" viewBox="0 0 12 14" fill="none" xmlns="http://www.w3.org/2000/svg">
<g clip-path="url(#clip0_1_111)">
<path d="M4.66667 4.33222H8.66667C8.84348 4.33222 9.01305 4.26204 9.13807 4.13709C9.2631 4.01216 9.33333 3.84271 9.33333 3.66602C9.33333 3.48933 9.2631 3.31988 9.13807 3.19494C9.01305 3.07 8.84348 2.99981 8.66667 2.99981H4.66667C4.48986 2.99981 4.32029 3.07 4.19526 3.19494C4.07024 3.31988 4 3.48933 4 3.66602C4 3.84271 4.07024 4.01216 4.19526 4.13709C4.32029 4.26204 4.48986 4.33222 4.66667 4.33222ZM3.33333 6.99704H8.66667C8.84348 6.99704 9.01305 6.92685 9.13807 6.80191C9.2631 6.67697 9.33333 6.50753 9.33333 6.33083C9.33333 6.15414 9.2631 5.98469 9.13807 5.85976C9.01305 5.73482 8.84348 5.66463 8.66667 5.66463H3.33333C3.15652 5.66463 2.98695 5.73482 2.86193 5.85976C2.7369 5.98469 2.66667 6.15414 2.66667 6.33083C2.66667 6.50753 2.7369 6.67697 2.86193 6.80191C2.98695 6.92685 3.15652 6.99704 3.33333 6.99704ZM3.33333 9.66186H8.66667C8.84348 9.66186 9.01305 9.59167 9.13807 9.46673C9.2631 9.34179 9.33333 9.17234 9.33333 8.99565C9.33333 8.81896 9.2631 8.64951 9.13807 8.52458C9.01305 8.39963 8.84348 8.32944 8.66667 8.32944H3.33333C3.15652 8.32944 2.98695 8.39963 2.86193 8.52458C2.7369 8.64951 2.66667 8.81896 2.66667 8.99565C2.66667 9.17234 2.7369 9.34179 2.86193 9.46673C2.98695 9.59167 3.15652 9.66186 3.33333 9.66186ZM11.3333 0.334996H0.666667C0.489856 0.334996 0.320286 0.405185 0.195262 0.530122C0.0702379 0.65506 0 0.824512 0 1.0012V12.9928C0 13.1165 0.0344764 13.2379 0.0995661 13.3431C0.164656 13.4483 0.257787 13.5335 0.368524 13.5887C0.479261 13.6441 0.603229 13.6675 0.726537 13.6564C0.849845 13.6453 0.96762 13.6001 1.06667 13.5259L2.44667 12.4932L3.82 13.5259C3.9354 13.6123 4.07575 13.6591 4.22 13.6591C4.36425 13.6591 4.5046 13.6123 4.62 13.5259L6 12.4932L7.38 13.5259C7.4954 13.6123 7.63575 13.6591 7.78 13.6591C7.92425 13.6591 8.0646 13.6123 8.18 13.5259L9.55333 12.4932L10.9333 13.5259C11.0329 13.5999 11.1511 13.6449 11.2748 13.6555C11.3985 13.6661 11.5226 13.6419 11.6333 13.5858C11.7433 13.5305 11.8357 13.4457 11.9005 13.3411C11.9652 13.2365 11.9996 13.1159 12 12.9928V1.0012C12 0.824512 11.9298 0.65506 11.8047 0.530122C11.6797 0.405185 11.5101 0.334996 11.3333 0.334996ZM10.6667 11.6605L9.95333 11.1275C9.83794 11.041 9.69758 10.9942 9.55333 10.9942C9.40909 10.9942 9.26873 11.041 9.15333 11.1275L7.78 12.1601L6.4 11.1275C6.2846 11.041 6.14425 10.9942 6 10.9942C5.85575 10.9942 5.7154 11.041 5.6 11.1275L4.22 12.1601L2.84667 11.1275C2.73127 11.041 2.59091 10.9942 2.44667 10.9942C2.30242 10.9942 2.16206 11.041 2.04667 11.1275L1.33333 11.6605V1.66741H10.6667V11.6605Z" fill="white"/>
</g>
<defs>
<clipPath id="clip0_1_111">
<rect width="11.9922" height="13.9844" fill="white" transform="scale(1.00065)"/>
</clipPath>
</defs>
</svg>
