<svg width="16" height="12" viewBox="0 0 16 12" fill="none" xmlns="http://www.w3.org/2000/svg">
<g clip-path="url(#clip0_1_96)">
<path d="M8.19975 6.14419C8.55533 5.8364 8.84052 5.45572 9.03599 5.02799C9.23146 4.60025 9.33263 4.13547 9.33262 3.66519C9.33262 2.78149 8.98158 1.934 8.35671 1.30912C7.73184 0.684259 6.88434 0.333211 6.00065 0.333211C5.11694 0.333211 4.26945 0.684259 3.64457 1.30912C3.01971 1.934 2.66866 2.78149 2.66866 3.66519C2.66866 4.13547 2.76983 4.60025 2.96529 5.02799C3.16076 5.45572 3.44596 5.8364 3.80154 6.14419C2.86868 6.56661 2.07721 7.24876 1.52178 8.10908C0.966351 8.96941 0.670456 9.9715 0.669475 10.9955C0.669475 11.1723 0.739684 11.3418 0.864658 11.4667C0.989631 11.5918 1.15913 11.6619 1.33587 11.6619C1.51261 11.6619 1.68211 11.5918 1.80709 11.4667C1.93206 11.3418 2.00227 11.1723 2.00227 10.9955C2.00227 9.93511 2.42352 8.91811 3.17336 8.16827C3.92321 7.41843 4.94021 6.99717 6.00065 6.99717C7.06108 6.99717 8.07808 7.41843 8.82792 8.16827C9.57776 8.91811 9.99902 9.93511 9.99902 10.9955C9.99902 11.1723 10.0693 11.3418 10.1942 11.4667C10.3192 11.5918 10.4887 11.6619 10.6654 11.6619C10.8421 11.6619 11.0117 11.5918 11.1366 11.4667C11.2616 11.3418 11.3318 11.1723 11.3318 10.9955C11.3308 9.9715 11.035 8.96941 10.4795 8.10908C9.92407 7.24876 9.13261 6.56661 8.19975 6.14419ZM6.00065 5.66438C5.60524 5.66438 5.21872 5.54713 4.88996 5.32746C4.56119 5.10778 4.30494 4.79556 4.15364 4.43024C4.00232 4.06494 3.96273 3.66298 4.03987 3.27517C4.11701 2.88736 4.30741 2.53114 4.587 2.25155C4.8666 1.97196 5.22281 1.78156 5.61062 1.70442C5.99843 1.62728 6.40039 1.66687 6.7657 1.81818C7.13101 1.96949 7.44323 2.22574 7.66291 2.55451C7.88258 2.88327 7.99983 3.26978 7.99983 3.66519C7.99983 4.19541 7.7892 4.70391 7.41428 5.07883C7.03936 5.45375 6.53086 5.66438 6.00065 5.66438ZM12.4914 5.87763C12.9178 5.39737 13.1964 4.8041 13.2935 4.16921C13.3907 3.53433 13.3023 2.88489 13.0389 2.29908C12.7757 1.71327 12.3486 1.21605 11.8092 0.867277C11.27 0.518503 10.6413 0.333039 9.99902 0.333211C9.82228 0.333211 9.65278 0.403421 9.5278 0.528394C9.40283 0.653368 9.33262 0.822869 9.33262 0.999607C9.33262 1.17635 9.40283 1.34585 9.5278 1.47083C9.65278 1.59579 9.82228 1.66601 9.99902 1.66601C10.5293 1.66601 11.0378 1.87663 11.4127 2.25155C11.7876 2.62648 11.9982 3.13497 11.9982 3.66519C11.9973 4.01521 11.9044 4.35884 11.729 4.66174C11.5537 4.96463 11.3018 5.21615 10.9986 5.39115C10.8998 5.44815 10.8173 5.52955 10.759 5.62756C10.7006 5.72557 10.6684 5.83691 10.6654 5.95093C10.6626 6.06406 10.6887 6.17603 10.7412 6.2763C10.7937 6.37657 10.8707 6.46183 10.9653 6.52403L11.2252 6.69729L11.3118 6.74394C12.1151 7.12493 12.7927 7.72754 13.2651 8.48078C13.7373 9.23402 13.9845 10.1066 13.9774 10.9955C13.9774 11.1723 14.0476 11.3418 14.1726 11.4667C14.2975 11.5918 14.4671 11.6619 14.6438 11.6619C14.8205 11.6619 14.9901 11.5918 15.115 11.4667C15.24 11.3418 15.3102 11.1723 15.3102 10.9955C15.3156 9.97291 15.0595 8.96587 14.5661 8.07012C14.0727 7.17435 13.3585 6.41962 12.4914 5.87763Z" fill="white"/>
</g>
<defs>
<clipPath id="clip0_1_96">
<rect width="15.9961" height="11.9922" fill="white" transform="scale(1.00024)"/>
</clipPath>
</defs>
</svg>
