<svg width="24" height="24" viewBox="0 0 24 24" fill="none" xmlns="http://www.w3.org/2000/svg">
<g clip-path="url(#clip0_1_68)">
<path d="M12 16C11.8022 16 11.6089 16.0587 11.4444 16.1685C11.28 16.2784 11.1518 16.4346 11.0761 16.6173C11.0004 16.8 10.9806 17.0011 11.0192 17.1951C11.0578 17.3891 11.153 17.5673 11.2929 17.7071C11.4327 17.847 11.6109 17.9422 11.8049 17.9808C11.9989 18.0194 12.1999 17.9996 12.3827 17.9239C12.5654 17.8482 12.7216 17.72 12.8315 17.5556C12.9413 17.3911 13 17.1978 13 17C13 16.7348 12.8946 16.4804 12.7071 16.2929C12.5196 16.1054 12.2652 16 12 16ZM22.67 17.47L14.62 3.47C14.3598 3.00352 13.9798 2.61496 13.5192 2.34447C13.0586 2.07398 12.5341 1.93137 12 1.93137C11.4658 1.93137 10.9414 2.07398 10.4808 2.34447C10.0202 2.61496 9.64018 3.00352 9.37998 3.47L1.37998 17.47C1.11078 17.924 0.966125 18.441 0.960627 18.9688C0.955129 19.4966 1.08898 20.0165 1.34867 20.4761C1.60836 20.9356 1.98469 21.3185 2.43967 21.586C2.89465 21.8536 3.41217 21.9964 3.93998 22H20.06C20.592 22.0052 21.1159 21.8689 21.5779 21.6049C22.0399 21.3409 22.4233 20.9589 22.689 20.4978C22.9546 20.0368 23.0928 19.5134 23.0895 18.9813C23.0861 18.4493 22.9414 17.9277 22.67 17.47ZM20.94 19.47C20.8523 19.626 20.7244 19.7555 20.5697 19.8452C20.4149 19.9349 20.2389 19.9815 20.06 19.98H3.93998C3.76109 19.9815 3.58508 19.9349 3.4303 19.8452C3.27552 19.7555 3.14764 19.626 3.05998 19.47C2.97221 19.318 2.92601 19.1455 2.92601 18.97C2.92601 18.7945 2.97221 18.622 3.05998 18.47L11.06 4.47C11.1439 4.3062 11.2714 4.16874 11.4284 4.07275C11.5855 3.97676 11.7659 3.92596 11.95 3.92596C12.134 3.92596 12.3145 3.97676 12.4715 4.07275C12.6286 4.16874 12.7561 4.3062 12.84 4.47L20.89 18.47C20.9892 18.6198 21.0462 18.7936 21.055 18.9731C21.0638 19.1526 21.0241 19.3312 20.94 19.49V19.47ZM12 8C11.7348 8 11.4804 8.10536 11.2929 8.2929C11.1053 8.48043 11 8.73479 11 9V13C11 13.2652 11.1053 13.5196 11.2929 13.7071C11.4804 13.8946 11.7348 14 12 14C12.2652 14 12.5196 13.8946 12.7071 13.7071C12.8946 13.5196 13 13.2652 13 13V9C13 8.73479 12.8946 8.48043 12.7071 8.2929C12.5196 8.10536 12.2652 8 12 8Z" fill="black"/>
</g>
<defs>
<clipPath id="clip0_1_68">
<rect width="23.9844" height="23.9844" fill="white" transform="scale(1.00065)"/>
</clipPath>
</defs>
</svg>
